# xmcd
#
# Track frame offsets: 
#        150
#        32801
#        58659
#        85508
#        112597
#        135289
#        158384
#        179339
#        200671
#        227936
#        250454
#        269059
#        283674
#
# Disc length: 4085 seconds
#
# Revision: 0
# Processed by: cddbd v1.5.2PL0 Copyright (c) Steve Scherf et al.
# Submitted via: ExactAudioCopy v1.0b3
#
DISCID=ae0ff30d
DTITLE=มาลีฮวนน่า - คอนเสิร์ตระบำสยาม ๑
DYEAR=2002
DGENRE=Blues
TTITLE0=ชุ่มฉ่ำในดวงใจ
TTITLE1=สมิหลา รูสมิแล
TTITLE2=แสงจันทร์
TTITLE3=ลมเพ ลมพัด
TTITLE4=คนเช็ดเงา
TTITLE5=ชะตากรรม
TTITLE6=หัวใจละเหี่ย
TTITLE7=สำนึก
TTITLE8=ฝุ่น
TTITLE9=ลานนม ลมเน
TTITLE10=หมาหยอกไก่
TTITLE11=รักสาวพรานนก
TTITLE12=สะพานไม้หมาก
EXTD=
EXTT0=
EXTT1=
EXTT2=
EXTT3=
EXTT4=
EXTT5=
EXTT6=
EXTT7=
EXTT8=
EXTT9=
EXTT10=
EXTT11=
EXTT12=
PLAYORDER=
